<svg xmlns="http://www.w3.org/2000/svg" width="2001.333" height="2001.333" viewBox="0 0 1501.000000 1501.000000"><path d="M0 750v750h1500V0H0v750zm1133.4-449.9c14.1 2.7 27.2 13.3 34.2 27.3l3.9 8 .8 93c.4 51.2.6 186.9.4 301.6-.3 207.8-.3 208.5-2.4 221.5-6.1 37-18.3 65.2-38.5 89.3-20.7 24.6-51.1 41.7-84.8 47.8-12.1 2.2-34.5 2.9-47.4 1.5-63.2-6.9-116.3-51.9-134-113.6-7.3-25.3-7.5-57.6-.6-82.5 13-46.9 46-84.8 90.4-103.6 34.1-14.5 72.9-16.3 108.1-5 4.4 1.4 8.3 2.6 8.8 2.6.4 0 .7-36.2.7-80.5 0-71.6-.2-80.5-1.5-80.5-.9 0-98.1 25-216.1 55.5C737.5 713 640.7 738 640.5 738c-.3 0-.6 73.2-.8 162.7l-.3 162.8-2.2 9.7c-4.8 20.9-13.4 40.9-25.3 58.8-8.1 12.3-29 33.3-41.4 41.7-17.7 12-38.8 20.9-59.2 25-13.4 2.7-43.3 2.4-57-.5-100.7-21.7-155.4-132.2-111.4-224.8 12.3-25.7 30.5-46.5 55.1-63 40-26.6 91.1-33.2 136.2-17.5l5.8 2 .2-209.7c.3-230.9-.2-211.1 6.4-224.7 3.7-7.7 14-18.1 22-22.3 5-2.6 41.1-12 188.5-49.2 218.2-55.2 342.4-86.2 355.1-88.9 9.1-1.9 11.4-1.9 21.2 0z"/></svg>