<svg width="209" height="50" viewBox="0 0 209 50" fill="none" xmlns="http://www.w3.org/2000/svg">
<path d="M83.85 30.95C81.9 35.85 73.9 34.65 73.9 30.4V18.2C73.9 13.8 81.8 12.8 84.2 17.2L91.5 14.25C88.65 7.95 83.4 6.1 79.05 6.1C71.95 6.1 64.95 10.2 64.95 18.2V30.4C64.95 38.45 71.95 42.5 78.9 42.5C83.35 42.5 88.7 40.3 91.65 34.55L83.85 30.95ZM103.902 28.65H114.102V42H123.102V6.6H114.102V20H103.902V6.6H94.9016V42H103.902V28.65ZM137.641 6.6H128.691V42H137.641V6.6ZM143.241 42H152.191V31.8L151.591 24.65L151.841 24.6L156.591 36.75H162.741L167.391 24.6L167.691 24.65L167.141 31.8L167.091 42H176.091V6.6H167.141L159.641 23.9L152.191 6.6H143.241V42ZM190.719 15H206.319V6.6H181.669V42H206.319V33.55H190.719V28.25H205.069V20.5H190.719V15Z" fill="#FFC554"/>
<path d="M38.6629 23.2899C38.3302 23.2647 39.5918 22.967 22.813 27.199C22.1264 27.3722 21.6448 27.9904 21.6448 28.6985C21.6448 41.3525 21.6444 38.4626 21.6444 40.5974C18.6747 39.4409 15.4609 41.6457 15.4609 44.8297C15.4609 46.037 15.9257 47.1868 16.7694 48.067C18.5685 49.944 21.4352 49.944 23.2343 48.067C24.0781 47.1868 24.5428 46.037 24.5428 44.8297V36.0367L37.1029 32.7887V37.5057C34.1774 36.3665 31.0151 38.4891 30.9216 41.5965C30.8487 44.0172 32.7244 46.1021 35.1406 46.268C37.9715 46.4623 40.0014 44.4445 40.0014 41.2438C40.0014 41.1261 40.0064 24.7047 39.9923 24.5748C39.9182 23.9039 39.377 23.3458 38.6629 23.2899Z" fill="#FFC554"/>
<path d="M18.4545 20.9656C19.7885 20.9656 20.8699 19.8842 20.8699 18.5502C20.8699 17.2162 19.7885 16.1348 18.4545 16.1348C17.1205 16.1348 16.0391 17.2162 16.0391 18.5502C16.0391 19.8842 17.1205 20.9656 18.4545 20.9656Z" fill="#FFC554"/>
<path d="M18.744 36.9982V26.3646C18.744 25.7007 19.1951 25.1218 19.839 24.9593L36.7854 20.6861C38.0555 9.62404 29.4141 0 18.4537 0C8.27827 0 0 8.32165 0 18.5503C0 29.1025 8.67362 37.1696 18.744 36.9982ZM13.1398 18.5503C13.1398 15.6202 15.5236 13.2364 18.4537 13.2364C21.3838 13.2364 23.7676 15.6202 23.7676 18.5503C23.7676 21.4804 21.3838 23.8642 18.4537 23.8642C15.5236 23.8642 13.1398 21.4804 13.1398 18.5503Z" fill="#FFC554"/>
</svg>
